# xmcd
#
# Track frame offsets: 
#        150
#        14691
#        33080
#        49313
#        68383
#        86471
#        105752
#        126985
#        143580
#        159869
#        173760
#        192970
#        215138
#        233079
#        253148
#        266826
#
# Disc length: 3772 seconds
#
# Revision: 2
# Processed by: cddbd v1.4PL0 Copyright (c) Steve Scherf et al.
# Submitted via: ExactAudioCopy v0.90b3
#
DISCID=d40eba10
DTITLE=Alabama - The Essential
DYEAR=1900
DGENRE=Country
TTITLE0=Old Flame
TTITLE1=My Home's In Alabama (Single Edit)
TTITLE2=Close Enough To Perfect
TTITLE3=Mountain Music
TTITLE4=Lady Down On Love
TTITLE5=(There's A) Fire In The Night
TTITLE6=Very Special Love
TTITLE7=Can't Keep A Good Man Down
TTITLE8=She And I
TTITLE9=As Right Now
TTITLE10=You've Got The Touch
TTITLE11=The Fans (Original Version)
TTITLE12=Tar Top
TTITLE13=I Showed Her
TTITLE14=High Cotton
TTITLE15=If I Had You
EXTD=
EXTT0=
EXTT1=
EXTT2=
EXTT3=
EXTT4=
EXTT5=
EXTT6=
EXTT7=
EXTT8=
EXTT9=
EXTT10=
EXTT11=
EXTT12=
EXTT13=
EXTT14=
EXTT15=
PLAYORDER=
